<svg id="Layer_1" data-name="Layer 1" xmlns="http://www.w3.org/2000/svg" viewBox="0 0 409.39 75.5"><defs><style>.cls-1{fill:#fff;}</style></defs><title>Mednefits Logo V2</title><path class="cls-1" d="M153.9,49.66l-.08,0A3.08,3.08,0,0,0,150,51l0,.08a6.29,6.29,0,0,1-5.87,3.44,6.22,6.22,0,0,1-5.87-3.44,3,3,0,0,0-2.7-1.76,2.84,2.84,0,0,0-1.12.19,2.86,2.86,0,0,0-1.57,3.81,12.06,12.06,0,0,0,11.33,7,12.24,12.24,0,0,0,11.22-6.85A2.86,2.86,0,0,0,153.9,49.66Z"/><path class="cls-1" d="M165.6.63a4.45,4.45,0,0,0-3.18,1.31,4.37,4.37,0,0,0-1.31,3.18V29.17A26.41,26.41,0,0,0,125,30.36,26.37,26.37,0,0,0,119.64,38a26.41,26.41,0,0,0-5.39-7.67,26.36,26.36,0,0,0-37.32,0,28.68,28.68,0,0,0-3.85,4.79,21.38,21.38,0,0,0-4.42-6.4,20.26,20.26,0,0,0-14.81-6.13A20.27,20.27,0,0,0,39,28.75c-.59.6-1.12,1.2-1.64,1.84-.53-.64-1-1.24-1.65-1.84a20.53,20.53,0,0,0-14.81-6.13,20.08,20.08,0,0,0-12,3.78A4.15,4.15,0,0,0,7.67,24a4.39,4.39,0,0,0-3.18-1.31A4.44,4.44,0,0,0,1.31,24,4.22,4.22,0,0,0,0,27.15V70.94a4.45,4.45,0,0,0,1.31,3.18,4.37,4.37,0,0,0,3.18,1.31,4.45,4.45,0,0,0,3.18-1.31A4.39,4.39,0,0,0,9,70.94V43.56a11.47,11.47,0,0,1,3.51-8.45,11.45,11.45,0,0,1,8.45-3.51,11.48,11.48,0,0,1,8.46,3.51,11.47,11.47,0,0,1,3.51,8.45V70.94a4.45,4.45,0,0,0,1.31,3.18,4.37,4.37,0,0,0,3.18,1.31,4.45,4.45,0,0,0,3.18-1.31,4.39,4.39,0,0,0,1.31-3.18V43.56a12,12,0,0,1,12-12,12,12,0,0,1,12,12V70.94a4.45,4.45,0,0,0,1.31,3.18,4.39,4.39,0,0,0,3.18,1.31,4.45,4.45,0,0,0,3.18-1.31,4.39,4.39,0,0,0,1.31-3.18V65.33a29.42,29.42,0,0,0,2.13,2.39,26.39,26.39,0,0,0,35.86,1.39l0,0a4.4,4.4,0,0,0,1.27-3.18,4.45,4.45,0,0,0-1.31-3.18,4.36,4.36,0,0,0-3.17-1.31,4.68,4.68,0,0,0-2.81.94l0,0a16.48,16.48,0,0,1-11.22,4.11,17.54,17.54,0,0,1-16.9-12.9h39a26.4,26.4,0,0,0,44.69,14.17,25.57,25.57,0,0,0,7.74-18.66v-44a4.44,4.44,0,0,0-1.31-3.18A4.3,4.3,0,0,0,165.6.63ZM143.69,66.45A17.34,17.34,0,0,1,126.26,49,17.43,17.43,0,1,1,156,61.37,17,17,0,0,1,143.69,66.45ZM95.55,31.63a17.56,17.56,0,0,1,16.91,12.91H78.69A17.53,17.53,0,0,1,95.55,31.63Z"/><path class="cls-1" d="M183.91,27.51a24.46,24.46,0,0,1,24.18-2.92A25.87,25.87,0,0,1,216,29.85a25,25,0,0,1,5.38,7.83,23.64,23.64,0,0,1,2,9.6V70.55a4.93,4.93,0,1,1-9.86,0V47.28a14.2,14.2,0,0,0-1.18-5.71,15.17,15.17,0,0,0-7.88-7.88,14.59,14.59,0,0,0-11.45,0,15,15,0,0,0-7.88,7.9,14.35,14.35,0,0,0-1.15,5.71V70.55a4.94,4.94,0,1,1-9.87,0V27.61a4.82,4.82,0,0,1,1.44-3.5,4.91,4.91,0,0,1,7,0,4.71,4.71,0,0,1,1.44,3.4"/><path class="cls-1" d="M276.34,38.91a26.8,26.8,0,0,0-24.49-16.26,25.47,25.47,0,0,0-18.69,7.74,25.47,25.47,0,0,0-7.74,18.69,25.44,25.44,0,0,0,7.74,18.68,26.44,26.44,0,0,0,36,1.32,4.86,4.86,0,0,0,1.42-3.53,4.75,4.75,0,0,0-4.91-4.91,5.19,5.19,0,0,0-3.26,1.22,15.65,15.65,0,0,1-4.81,2.84,16.56,16.56,0,0,1-5.71.94,16.28,16.28,0,0,1-5.26-.85A17.2,17.2,0,0,1,242,62.41a16.55,16.55,0,0,1-3.65-3.68A15.88,15.88,0,0,1,236,54h37.37a4.86,4.86,0,0,0,3.52-1.39,4.68,4.68,0,0,0,1.44-3.51A26.43,26.43,0,0,0,276.34,38.91Zm-38.08.52a16.47,16.47,0,0,1,3.68-3.68,17.18,17.18,0,0,1,4.67-2.39,16.67,16.67,0,0,1,5.24-.85,16.39,16.39,0,0,1,5.21.85,16.93,16.93,0,0,1,8.31,6.07,15.76,15.76,0,0,1,2.38,4.74H236A15.14,15.14,0,0,1,238.26,39.43Z"/><path class="cls-1" d="M309.39,9.91q-13,0-13,13v2.45h9.49a4.94,4.94,0,0,1,3.47,8.42,4.73,4.73,0,0,1-3.47,1.44h-9.49V70.59a4.79,4.79,0,0,1-.37,1.89,5.17,5.17,0,0,1-1,1.58,4.72,4.72,0,0,1-1.56,1.07,5.24,5.24,0,0,1-3.87,0A4.72,4.72,0,0,1,288,74.06a5,5,0,0,1-1-1.58,4.63,4.63,0,0,1-.38-1.89V35.2h-2.27a4.72,4.72,0,0,1-3.51-1.41,4.86,4.86,0,0,1-1.39-3.54,4.75,4.75,0,0,1,4.9-4.91h2.27V22.89Q286.55,0,309.39.05a4.73,4.73,0,0,1,3.47,1.44A4.71,4.71,0,0,1,314.3,5a4.78,4.78,0,0,1-1.44,3.52,4.73,4.73,0,0,1-3.47,1.44"/><path class="cls-1" d="M327.89,15.51a5.81,5.81,0,1,1-11.61,0,5.81,5.81,0,1,1,11.61,0m-10.71,55V30.3a4.78,4.78,0,0,1,1.44-3.52,4.9,4.9,0,0,1,6.94,0A4.94,4.94,0,0,1,327,30.3V70.55a4.93,4.93,0,0,1-1.48,3.51,4.91,4.91,0,0,1-8.38-3.51"/><path class="cls-1" d="M334.67,25.34h5.45V4.91a4.73,4.73,0,0,1,1.44-3.47A4.78,4.78,0,0,1,345.08,0a4.71,4.71,0,0,1,3.46,1.44A4.73,4.73,0,0,1,350,4.91V25.34h5.9a4.67,4.67,0,0,1,3.45,1.44,5,5,0,0,1,0,7,4.67,4.67,0,0,1-3.45,1.44H350v21q0,9.39,9.44,9.39a4.67,4.67,0,0,1,3.45,1.44,5,5,0,0,1,0,7,4.67,4.67,0,0,1-3.45,1.44q-19.31,0-19.3-19.25v-21h-5.45a4.67,4.67,0,0,1-3.42-1.44,4.95,4.95,0,0,1,0-7,4.67,4.67,0,0,1,3.42-1.44"/><path class="cls-1" d="M376.17,50.35a18.34,18.34,0,0,1-6.23-3.49H370a11.77,11.77,0,0,1-3.59-8.54,11.57,11.57,0,0,1,1.91-6.49,17.33,17.33,0,0,1,5-4.93,25.12,25.12,0,0,1,6.92-3.14,27.64,27.64,0,0,1,7.71-1.11q11.81,0,20.24,9.49a4.52,4.52,0,0,1,1,3A4.79,4.79,0,0,1,404.25,40a4,4,0,0,1-2.57-.85,25.34,25.34,0,0,1-2.06-1.84,15.93,15.93,0,0,0-11.7-4.82q-6.8,0-10.85,4.16a2.76,2.76,0,0,0-.76,2.07,1.78,1.78,0,0,0,1.23,1.8l22.08,7.26c3.09,1.2,5.16,2.36,6.23,3.49h0a11.78,11.78,0,0,1,3.58,8.55,11.54,11.54,0,0,1-1.91,6.51,17.59,17.59,0,0,1-5,4.93,24.21,24.21,0,0,1-6.89,3.14,28.16,28.16,0,0,1-7.69,1.08q-11.9,0-20.24-9.39a4.89,4.89,0,0,1-1-3.07,4.75,4.75,0,0,1,4.91-4.9,3.93,3.93,0,0,1,2.64.92q1.08.91,2,1.77a16,16,0,0,0,11.75,4.81,14.39,14.39,0,0,0,10.85-4.25,2.78,2.78,0,0,0,.71-1.93,1.84,1.84,0,0,0-1.27-1.84Z"/></svg>